<svg width="142" height="46" viewBox="0 0 142 46" fill="none" xmlns="http://www.w3.org/2000/svg">
<path d="M54.1924 0.272724C52.0059 1.06957 49.8194 3.09014 48.5536 5.5376L47.8919 6.81824L47.4603 6.16369C47.2302 5.79372 46.3671 4.82613 45.5615 4.02928C43.6915 2.12254 41.7351 1.46799 39.4336 1.95179C38.1101 2.20792 37.9088 2.35021 37.9951 2.86247C38.0814 3.43165 38.2252 3.48856 39.7212 3.40319C42.4256 3.23243 44.756 4.62691 46.3958 7.3305C46.9137 8.21272 46.9137 8.24118 46.3958 8.09889C43.9792 7.35896 43.0873 7.27358 41.6201 7.61509C39.5199 8.09889 37.7937 9.15186 36.7867 10.5179C35.8373 11.7985 35.7223 12.4815 36.3264 12.9938C36.6141 13.2499 36.9306 12.9938 37.8224 11.827C39.6062 9.49337 42.1091 8.58269 44.8423 9.32261L46.1369 9.66412L45.4177 10.1195C42.5695 11.9124 40.498 16.0958 41.8214 17.4049C42.5119 18.0879 43.1161 17.5187 43.1161 16.1812C43.1161 14.8152 44.4395 12.7377 46.0218 11.5993C46.6835 11.144 47.3452 10.7456 47.4603 10.7456C47.8055 10.7456 48.8413 14.1891 49.3303 16.8642C49.8482 19.767 49.8482 25.3164 49.3016 28.2477C49.0714 29.4999 48.8988 30.5529 48.87 30.5813C48.87 30.6098 46.9712 30.6382 44.6409 30.6667C41.9365 30.6667 39.6062 30.809 38.254 31.0936L36.125 31.5489L33.2193 30.5529C31.6369 30.0121 29.7094 29.4145 28.9614 29.2438C28.1846 29.0445 27.5804 28.8453 27.5804 28.8169C27.5804 28.7884 27.9256 27.9916 28.3572 27.0809C29.0477 25.6295 29.1628 25.0603 29.134 22.8405C29.134 20.5638 29.0189 20.08 28.2421 18.4294C24.8761 11.5709 16.1876 10.091 10.7213 15.4412C9.88702 16.2666 8.88007 17.6326 8.44853 18.5717C7.72928 20.0516 7.64297 20.6207 7.64297 22.8405C7.61421 25.1172 7.72928 25.601 8.4773 27.1947L9.36916 28.9592L8.33345 29.2153C7.75805 29.3291 6.57849 29.6137 5.7154 29.8129C1.22732 30.809 -0.700253 31.7481 0.709465 32.2888C0.939623 32.3742 2.55073 32.1181 4.24814 31.6912C9.80071 30.3536 12.39 30.0406 18.5179 30.0121C21.8552 30.0121 25.1925 30.1544 26.4296 30.3536C30.1985 30.9513 34.1687 32.3742 39.0883 34.8786C41.7064 36.1877 44.4107 37.5537 45.13 37.9237C47.2302 38.9482 50.0496 39.8304 51.8333 39.9727C53.3581 40.115 53.4732 40.0865 53.4732 39.5174C53.4732 38.8628 52.5238 38.3506 51.3442 38.3506C50.0496 38.3506 46.9137 37.1268 42.8572 34.9924C39.0595 33.0288 38.7718 32.8296 39.4048 32.5734C39.7788 32.4311 42.2242 32.2888 44.8423 32.2888C49.2728 32.2888 49.8194 32.3458 52.9553 33.1711C56.2639 34.0533 57.2133 34.1102 57.2133 33.3703C57.2133 32.7726 56.6091 32.4881 53.9047 31.805C50.251 30.9228 50.2797 30.9228 50.4524 30.6952C50.7688 30.1829 51.4593 24.5481 51.4593 22.4706C51.4593 19.1978 50.6825 14.5021 49.6468 11.6562L49.2153 10.461H49.9921C51.8333 10.4894 54.3938 12.9653 55.2569 15.5835C55.5734 16.5227 55.8323 16.8642 56.2351 16.8642C56.6954 16.8642 56.7817 16.6934 56.7242 15.7258C56.5803 13.5061 54.5952 10.7456 52.2936 9.6072C51.6607 9.2657 51.2004 8.92419 51.2867 8.7819C51.373 8.66806 52.1498 8.41193 53.0129 8.21272C55.0555 7.75738 56.494 8.1558 58.2202 9.66412C59.3998 10.7171 60.3779 10.8878 60.3779 10.0625C60.3779 9.6072 58.1339 7.55817 57.0982 7.01745C55.746 6.3629 52.4662 6.5052 50.7976 7.30204C50.0496 7.672 49.3591 7.92813 49.3016 7.87122C49.244 7.78584 49.5317 7.10283 49.9057 6.33444C51.1716 3.83007 53.4444 1.92333 55.5734 1.52491C56.494 1.35416 56.6666 1.21186 56.5803 0.699604C56.4652 -0.0403252 55.5158 -0.211079 54.1924 0.272724ZM21.8265 14.4167C23.6965 15.1282 24.9336 16.0673 25.9693 17.5472C26.9475 18.9417 27.8681 21.5314 27.8681 22.9259C27.8681 24.1781 27.1489 26.5971 26.4584 27.6216L25.9405 28.4185L18.4316 28.4754L10.894 28.5323L10.1747 27.2232C9.11023 25.2311 8.765 23.3243 9.16777 21.3607C9.94456 17.718 11.9872 15.4412 15.7848 14.0752C16.8493 13.6768 20.4455 13.9045 21.8265 14.4167Z" fill="#F2D43D"/>
<path d="M18 4.68379C17.8849 4.76916 17.7986 5.99289 17.7986 7.38737C17.7986 9.4364 17.8849 9.94866 18.2589 10.091C18.9781 10.3471 19.2371 9.63562 19.2371 7.302C19.2371 5.02529 18.7192 3.94386 18 4.68379Z" fill="#F2D43D"/>
<path d="M9.54168 7.50118C9.25398 8.24111 11.0665 11.5992 11.7282 11.5992C12.6776 11.5992 12.6776 11.087 11.757 9.40792C10.376 6.932 9.91569 6.53358 9.54168 7.50118Z" fill="#F2D43D"/>
<path d="M26.0843 7.5296C25.5377 8.18415 24.4156 10.6031 24.4156 11.2008C24.4156 11.4854 24.617 11.5992 25.0486 11.5423C25.5089 11.4854 25.9404 11.0016 26.5158 9.77785C27.3214 8.09878 27.4077 7.33039 26.8323 7.13118C26.6597 7.07426 26.3432 7.24501 26.0843 7.5296Z" fill="#F2D43D"/>
<path d="M3.03983 12.9369C2.55074 13.3922 2.95352 13.9329 4.53585 15.0144C6.37712 16.2381 7.01005 16.4088 7.24021 15.7543C7.41283 15.299 7.03882 14.929 5.08248 13.6483C3.70153 12.7092 3.35629 12.5954 3.03983 12.9369Z" fill="#F2D43D"/>
<path d="M31.2916 13.9329C29.4216 15.1566 28.9612 15.9535 30.0257 16.0957C30.8888 16.1811 34.2549 13.9613 34.1398 13.3637C33.9672 12.5099 33.1904 12.6807 31.2916 13.9329Z" fill="#F2D43D"/>
<path d="M0.105247 21.8444C-0.3263 22.5274 0.594333 22.9828 2.40683 22.9828C4.59333 22.9828 5.13995 22.812 5.13995 22.1006C5.13995 21.6168 4.9098 21.5598 2.72329 21.5598C1.34235 21.5598 0.191556 21.7021 0.105247 21.8444Z" fill="#F2D43D"/>
<path d="M31.7233 21.9867C31.4068 22.7836 32.011 23.0113 34.2263 22.9259C36.1251 22.8405 36.3552 22.7836 36.3552 22.2713C36.3552 21.7591 36.1251 21.7022 34.1112 21.6168C32.2699 21.5599 31.8671 21.6168 31.7233 21.9867Z" fill="#F2D43D"/>
<path d="M5.57146 36.0454C3.96035 36.4438 2.98218 37.0699 2.98218 37.6391C2.98218 38.3221 3.44249 38.3221 5.7153 37.6675C7.58534 37.1268 9.22521 37.3829 11.757 38.6351C14.6915 40.0865 17.2232 40.0296 20.618 38.4359C21.9414 37.8098 22.6607 37.6675 24.4156 37.6675C26.3144 37.6675 26.7748 37.7529 28.4434 38.6351C30.1696 39.5458 30.5148 39.6027 32.9027 39.6312C35.8948 39.6312 37.9374 39.0905 37.9374 38.3221C37.9374 37.5252 37.5634 37.4683 35.118 37.9237C32.4424 38.4359 31.2916 38.2652 28.1845 36.8422C25.4801 35.6469 23.2936 35.6754 20.3879 36.9561C18.5466 37.7529 17.8849 37.8952 15.9286 37.8952C13.8859 37.9237 13.4256 37.8098 11.8145 36.9845C9.88692 35.9885 7.26887 35.59 5.57146 36.0454Z" fill="#F2D43D"/>
<path d="M9.68555 42.7616C8.07444 43.6438 8.85123 44.1846 11.6131 44.0707C13.3393 44.0138 13.9147 44.1276 15.7847 44.9245C18.5466 46.0913 19.9851 46.0913 23.5526 44.9245C25.0486 44.4407 26.6885 44.0423 27.2063 44.0423C27.753 44.0423 29.3641 44.4976 30.8313 45.0668C33.1329 45.9775 33.7083 46.0913 35.2043 45.949C36.1537 45.8636 37.5922 45.5221 38.369 45.1806C40.3541 44.3269 42.9721 44.1276 44.8134 44.7253C46.4821 45.266 47.0287 45.2945 47.2876 44.8676C47.6041 44.3838 46.6834 43.6438 45.2162 43.1885C43.0585 42.534 40.6993 42.6478 38.4553 43.5585C35.0892 44.896 34.6865 44.8676 30.0258 43.0747C28.1845 42.3917 25.9692 42.5055 22.9196 43.5016C19.7837 44.5261 18.5466 44.4976 15.9286 43.3023C13.8284 42.3347 10.8939 42.0786 9.68555 42.7616Z" fill="#F2D43D"/>
<path d="M67.9527 8.63035C67.8375 8.80097 67.8087 8.94315 67.8375 8.97159C69.1624 9.65405 69.1048 9.31282 69.1048 15.0284C69.1048 20.3175 69.1048 20.4028 68.4424 20.6872C67.2039 21.2275 67.9815 21.5403 70.5449 21.5403C72.1865 21.5403 73.137 21.4265 73.1946 21.2275C73.2522 21.0284 72.993 20.8294 72.6186 20.7156C71.7545 20.5166 71.5529 19.8626 71.5529 17.3318V15.4266H74.8651H78.1772V17.8436C78.1772 20.1754 78.1484 20.2891 77.4572 20.6019C76.1035 21.1991 76.8236 21.5403 79.4733 21.5403C81.115 21.5403 82.0654 21.4265 82.123 21.2275C82.1806 21.0284 81.9214 20.8294 81.547 20.7156C80.6253 20.4882 80.4813 19.7204 80.4813 14.7441C80.4813 10.2228 80.5965 9.54031 81.3742 9.31282C81.6622 9.19907 81.9214 8.94315 81.9214 8.71566C81.9214 8.37443 81.4606 8.31756 79.4157 8.37443C76.8236 8.45974 76.1611 8.82941 77.4572 9.39813C78.1484 9.71092 78.1772 9.8531 78.1772 12.0142V14.2891H74.8651H71.5529V12.1849C71.5529 10.1375 71.9273 9.17064 72.7338 9.17064C72.8778 9.17064 72.993 8.97159 72.993 8.7441C72.993 8.40287 72.5322 8.31756 70.5737 8.31756C69.1624 8.31756 68.0391 8.4313 67.9527 8.63035Z" fill="#F2D43D"/>
<path d="M89.4097 8.9147C84.0239 11.3033 84.1967 19.0379 89.669 21.2843C90.8498 21.7678 93.4131 21.7962 94.9108 21.3412C96.2357 20.9716 98.1653 19.4076 98.7702 18.2701C99.519 16.8483 99.7782 15.1137 99.4326 13.6351C98.9142 11.2465 97.9349 9.99527 95.5444 8.80096C94.2196 8.1185 91.0514 8.17537 89.4097 8.9147ZM95.2852 10.3081C97.1861 11.9574 97.7621 15.5687 96.4949 17.9858C95.602 19.7204 94.3348 20.545 92.5203 20.545C89.4961 20.545 87.9697 18.6114 87.9697 14.7725C87.9697 13.1517 88.1137 12.5545 88.6897 11.5592C89.6401 9.99527 90.5906 9.48342 92.6355 9.45499C94.0756 9.45499 94.4212 9.56873 95.2852 10.3081Z" fill="#F2D43D"/>
<path d="M102.284 8.80093C101.593 11.218 101.967 12.4692 102.86 10.9052C103.465 9.88149 104.329 9.45495 105.827 9.45495H106.979V14.1185C106.979 19.6919 106.863 20.3744 105.884 20.8009C104.646 21.3696 105.567 21.7109 108.131 21.6255C110.55 21.5402 111.27 21.199 110.089 20.6872C109.427 20.4028 109.427 20.2891 109.34 14.9147L109.283 9.45495H110.291C111.644 9.45495 112.969 10.1659 113.315 11.0189C113.949 12.6398 114.438 11.3317 114.006 9.19903L113.833 8.31752H108.102C102.918 8.31752 102.399 8.37439 102.284 8.80093Z" fill="#F2D43D"/>
<path d="M117.347 8.7157C117.347 8.94319 117.606 9.22755 117.923 9.31286C118.528 9.51191 118.499 9.22755 118.586 15.8531C118.614 19.6351 118.499 20.5166 117.923 20.6872C117.606 20.7726 117.347 21.0285 117.347 21.2275C117.347 21.4834 118.643 21.5688 122.387 21.6256L127.428 21.7109L127.716 20.9716C128.061 20.0617 128.09 17.9858 127.773 17.9858C127.629 17.9858 127.37 18.2986 127.197 18.6967C126.65 19.8626 125.21 20.5451 123.251 20.5451C122.272 20.5451 121.35 20.4029 121.149 20.2038C120.947 20.0048 120.803 18.9811 120.803 17.6446V15.4266H122.675C124.346 15.4266 124.576 15.5119 125.008 16.1375C125.786 17.3318 126.074 16.9906 125.901 15.1138C125.728 13.1233 125.555 12.8389 125.008 13.5783C124.72 13.9764 124.144 14.147 122.704 14.2323L120.803 14.346V11.9005V9.45504H122.992C125.152 9.45504 125.21 9.48347 126.189 10.4787C126.736 11.0475 127.284 11.4171 127.399 11.2749C127.514 11.1328 127.572 10.4219 127.485 9.65409L127.37 8.3176H122.358C118.211 8.3176 117.347 8.37447 117.347 8.7157Z" fill="#F2D43D"/>
<path d="M131.748 8.68723C131.748 8.88628 132.036 9.17064 132.41 9.31282C133.044 9.59718 133.044 9.71092 133.13 14.9147L133.188 20.2322L132.295 20.6872C131.805 20.9431 131.46 21.1991 131.517 21.2559C131.546 21.2844 133.821 21.3697 136.5 21.4265L141.396 21.5403L141.742 20.1185C142.26 18.128 141.972 17.6161 141.108 18.9242C140.273 20.1185 138.891 20.6303 136.932 20.4882L135.636 20.4028V15C135.636 9.68249 135.636 9.59718 136.298 9.31282C136.644 9.17064 136.932 8.88628 136.932 8.68723C136.932 8.40287 136.241 8.31756 134.34 8.31756C132.439 8.31756 131.748 8.40287 131.748 8.68723Z" fill="#F2D43D"/>
<path d="M71.8409 26.9147C71.8409 27.1707 71.9561 27.3697 72.1002 27.3697C72.2442 27.3697 72.5898 27.5688 72.8202 27.8247C73.1946 28.1943 73.281 29.0759 73.281 33.0569C73.281 35.7014 73.1946 38.0332 73.1082 38.2891C73.0218 38.545 72.6762 38.7441 72.3882 38.7441C72.1002 38.7441 71.8409 38.9431 71.8409 39.1706C71.8409 39.5119 72.3306 39.5972 74.5771 39.5972C77.3996 39.5972 77.918 39.3412 76.5356 38.6872C75.7867 38.346 75.7291 38.1754 75.6427 36.4692L75.5563 34.6209L77.2844 34.564C81.2014 34.4787 83.6495 31.3507 81.9214 28.5925C80.8846 26.8863 80.2221 26.6588 75.8155 26.5735C72.3306 26.4882 71.8409 26.5166 71.8409 26.9147ZM79.3293 28.4218C79.8477 29.0759 79.9341 29.5024 79.8477 30.7251C79.6749 32.6872 79.0125 33.3697 77.054 33.5687L75.5851 33.7109V30.6683V27.6541H77.1404C78.5229 27.6541 78.7821 27.7678 79.3293 28.4218Z" fill="#F2D43D"/>
<path d="M85.3776 26.8009C85.3776 26.9431 85.6944 27.3696 86.0976 27.7677C86.7889 28.4502 86.8177 28.5924 86.8177 32.5734C86.8177 37.6066 86.6737 38.4312 85.752 38.7724C85.3776 38.9146 85.1472 39.1421 85.2336 39.3127C85.464 39.6824 94.7956 39.6824 95.026 39.3127C95.1125 39.1705 95.2853 38.4028 95.3717 37.6066C95.5445 36.0426 95.2277 35.7298 94.594 36.9241C94.018 37.9762 92.8371 38.4596 90.8499 38.4596H89.1218L89.0642 34.2511C88.9778 28.2227 89.0066 27.853 89.6978 27.398C90.7346 26.7156 90.3314 26.5165 87.8257 26.5165C86.4721 26.5165 85.3776 26.6303 85.3776 26.8009Z" fill="#F2D43D"/>
<path d="M103.551 27.1422C103.407 27.5118 102.86 28.8767 102.37 30.2132C100.037 36.4123 99.4038 37.7772 98.5974 38.4881C98.1366 38.8862 97.8486 39.3127 97.9638 39.3981C98.1942 39.654 101.938 39.654 102.198 39.3981C102.284 39.2843 102.054 38.9431 101.622 38.6018L100.844 38.0047L101.334 36.526L101.852 35.0474H104.214H106.604L107.238 36.4976C108.015 38.3459 107.987 38.4028 107.094 38.744C106.691 38.9146 106.46 39.1421 106.547 39.3127C106.748 39.654 111.5 39.7109 111.702 39.3696C111.788 39.2274 111.5 38.8578 111.068 38.545C110.435 38.09 109.772 36.6966 108.015 32.2322L105.74 26.5166H104.761C104.041 26.5166 103.724 26.6587 103.551 27.1422ZM105.078 31.0948C105.452 32.09 105.855 33.1421 105.971 33.3981C106.143 33.853 105.971 33.9099 104.271 33.9099H102.37L102.543 33.1137C102.658 32.6872 102.946 31.891 103.177 31.3507C103.407 30.8104 103.695 30.0426 103.839 29.673C104.185 28.8199 104.271 28.9052 105.078 31.0948Z" fill="#F2D43D"/>
<path d="M111.587 26.801C111.587 26.9432 111.904 27.2844 112.307 27.5403C112.71 27.7962 113.862 29.3318 114.899 30.9526L116.771 33.91V36.1849C116.771 38.3744 116.742 38.4882 116.051 38.7441C114.582 39.2844 115.331 39.5972 118.067 39.5972C120.89 39.5972 121.408 39.3412 120.026 38.6872C119.277 38.346 119.219 38.1754 119.133 36.2986C119.046 34.3081 119.046 34.3081 120.803 31.4076C121.782 29.8152 123.021 28.1659 123.568 27.7678C124.115 27.3413 124.547 26.9147 124.547 26.7725C124.547 26.4598 120.717 26.4313 120.4 26.7157C120.285 26.8294 120.486 27.1422 120.861 27.3981C121.494 27.8815 121.494 27.91 121.005 28.8484C120.342 30.1564 119.075 32.2891 118.787 32.5735C118.586 32.801 115.907 28.5356 115.907 27.9953C115.907 27.8531 116.109 27.5688 116.339 27.3697C116.569 27.1707 116.685 26.9147 116.598 26.7725C116.397 26.4313 111.587 26.4598 111.587 26.801Z" fill="#F2D43D"/>
<path d="M129.876 26.8579C129.818 27.0569 129.098 29.019 128.292 31.2086C126.218 36.6683 125.267 38.6303 124.519 38.8294C124.173 38.9147 124 39.1138 124.115 39.2844C124.317 39.6256 128.58 39.7109 128.58 39.3981C128.58 39.2844 128.263 38.9431 127.86 38.6019L127.111 38.0332L127.6 36.5261L128.09 35.0474H130.48H132.9L133.332 36.0995C134.167 38.0901 134.196 38.4313 133.361 38.7441C131.863 39.2844 132.583 39.5972 135.348 39.5972C136.846 39.5972 138.084 39.5119 138.084 39.3981C138.084 39.3128 137.71 38.8863 137.249 38.4882C136.615 37.9194 135.838 36.3555 134.167 32.1185L131.921 26.5166H130.97C130.423 26.5166 129.962 26.6872 129.876 26.8579ZM131.431 31.3507C131.46 31.6067 131.575 31.9195 131.719 32.0616C131.834 32.2323 132.036 32.6872 132.151 33.1138L132.324 33.91H130.423C129.012 33.91 128.551 33.8247 128.637 33.5403C128.724 33.3697 129.156 32.2038 129.616 30.9811L130.452 28.7631L130.941 29.8436C131.201 30.4408 131.431 31.1233 131.431 31.3507Z" fill="#F2D43D"/>
</svg>
